<svg width="423" height="283" viewBox="0 0 423 283" fill="none" xmlns="http://www.w3.org/2000/svg">
<path d="M54.78 197.71V264.33H43.1301V236.24L43.55 225.15L40.21 230.22L27.3401 245.35L14.47 230.22L11.1301 225.15L11.6501 236.24V264.33H0V197.71H0.939941L27.4399 228.95L53.75 197.71H54.78Z" fill="white"/>
<path d="M79.6799 261.129L62.1101 217.529H75.1702L82.1201 238.389L85.1301 249.199L88.1401 238.389L95.1899 217.529H107.5L83.6301 282.079H72.0701L79.6799 261.129V261.129Z" fill="white"/>
<path d="M149.3 209.45H134.17V264.32H122.05V209.45H106.92V198.83H149.3V209.45Z" fill="white"/>
<path d="M159.73 262.33C156.44 260.18 154.04 257.31 152.52 253.71C151 250.11 150.24 246.04 150.24 241.5C150.24 236.96 151.09 232.64 152.8 228.84C154.51 225.04 157 222.01 160.29 219.77C163.58 217.53 167.49 216.41 172.03 216.41C178.8 216.41 183.63 218.36 186.55 222.26C189.47 226.16 190.92 231.98 190.92 239.71C190.92 241.21 190.86 242.9 190.73 244.78H162.54C162.73 248.57 163.79 251.49 165.71 253.54C167.64 255.59 170.46 256.62 174.19 256.62C176.13 256.62 178.21 256.19 180.44 255.33C182.66 254.47 184.31 253.43 185.37 252.21L189.13 261.14C184.71 264.08 179.08 265.56 172.22 265.56C167.18 265.56 163.01 264.49 159.72 262.34L159.73 262.33ZM178.99 237.45C178.99 232.85 178.42 229.67 177.28 227.94C176.14 226.2 174.48 225.33 172.32 225.33C169.28 225.33 166.92 226.46 165.25 228.71C163.57 230.96 162.64 233.88 162.45 237.45H178.99V237.45Z" fill="white"/>
<path d="M204.36 263.76C202.45 262.51 201.02 260.82 200.06 258.69C199.1 256.56 198.63 254.18 198.63 251.55C198.63 249.26 199.39 246.99 200.91 244.71C202.43 242.44 205.13 240.51 209.01 238.91C212.89 237.31 218.14 236.51 224.75 236.51V234.35C224.75 231.78 224.13 229.79 222.89 228.38C221.65 226.97 219.48 226.27 216.38 226.27C213.94 226.27 211.55 226.69 209.22 227.52C206.89 228.35 205.17 229.38 204.08 230.6L200.32 221.58C202.45 220.14 205.1 218.92 208.26 217.92C211.42 216.92 214.79 216.42 218.36 216.42C222.84 216.42 226.39 217.11 229 218.49C231.61 219.87 233.45 221.81 234.52 224.32C235.58 226.83 236.12 229.93 236.12 233.62V264.34H226.07L225.22 257.67C223.56 260.36 221.59 262.37 219.32 263.68C217.05 265 214.41 265.65 211.4 265.65C208.61 265.65 206.26 265.02 204.35 263.77L204.36 263.76ZM220.94 254.88C222.54 253.72 223.81 252.27 224.75 250.51V243.84C224.31 243.78 223.56 243.75 222.5 243.75C219.34 243.75 216.51 244.27 214.02 245.32C211.53 246.37 210.29 248.07 210.29 250.42C210.29 252.64 210.78 254.23 211.77 255.19C212.76 256.15 214.3 256.62 216.4 256.62C217.84 256.62 219.36 256.04 220.96 254.88H220.94Z" fill="white"/>
<path d="M255.15 262.179C251.96 259.999 249.6 257.079 248.08 253.419C246.56 249.759 245.8 245.649 245.8 241.109C245.8 236.569 246.65 232.559 248.34 228.799C250.03 225.039 252.54 222.029 255.86 219.779C259.18 217.529 263.16 216.399 267.79 216.399C270.67 216.399 273.18 216.699 275.33 217.319C277.47 217.929 279.53 219.029 281.51 220.629L277.66 230.589C276.75 229.239 275.41 228.169 273.64 227.369C271.87 226.569 270.14 226.169 268.45 226.169C261.62 226.169 258.21 231.119 258.21 241.019C258.21 246.189 259.05 249.949 260.72 252.319C262.39 254.689 264.97 255.869 268.45 255.869C270.55 255.869 272.47 255.479 274.21 254.699C275.95 253.919 277.32 252.959 278.32 251.829L281.89 260.189C281.2 260.939 280.16 261.719 278.77 262.519C277.38 263.319 275.68 264.009 273.67 264.589C271.67 265.169 269.49 265.459 267.14 265.459C262.35 265.459 258.36 264.369 255.16 262.199L255.15 262.179Z" fill="white"/>
<path d="M327 220.84C329.36 223.8 330.55 227.99 330.55 233.41V264.32H318.52V234.63C318.52 232 317.89 229.88 316.64 228.29C315.39 226.69 313.66 225.89 311.47 225.89C310 225.89 308.61 226.27 307.31 227.02C306.01 227.77 304.97 228.81 304.19 230.14C303.41 231.47 303.02 232.97 303.02 234.63V264.32H291.46V192.72H302.55V216.4L302.31 223.45C305.54 218.75 310.28 216.4 316.54 216.4C321.14 216.4 324.63 217.88 326.99 220.84H327Z" fill="white"/>
<path d="M351.31 262.33C348.02 260.18 345.62 257.31 344.1 253.71C342.58 250.11 341.82 246.04 341.82 241.5C341.82 236.96 342.67 232.64 344.38 228.84C346.09 225.04 348.58 222.01 351.87 219.77C355.16 217.53 359.07 216.41 363.61 216.41C370.38 216.41 375.21 218.36 378.13 222.26C381.05 226.16 382.5 231.98 382.5 239.71C382.5 241.21 382.44 242.9 382.31 244.78H354.12C354.31 248.57 355.37 251.49 357.29 253.54C359.22 255.59 362.04 256.62 365.77 256.62C367.71 256.62 369.79 256.19 372.02 255.33C374.24 254.47 375.89 253.43 376.95 252.21L380.71 261.14C376.29 264.08 370.66 265.56 363.8 265.56C358.76 265.56 354.59 264.49 351.3 262.34L351.31 262.33ZM370.57 237.45C370.57 232.85 370 229.67 368.86 227.94C367.72 226.2 366.06 225.33 363.9 225.33C360.86 225.33 358.5 226.46 356.83 228.71C355.15 230.96 354.22 233.88 354.03 237.45H370.57V237.45Z" fill="white"/>
<path d="M393.12 217.53H403.74L404.3 225.8C405.3 223.39 406.88 221.31 409.05 219.58C411.21 217.84 414.26 216.97 418.21 216.97C419.78 216.97 421.22 217.22 422.53 217.72L419.9 230.03C419.37 229.5 418.73 229.11 418 228.88C417.26 228.65 416.36 228.53 415.3 228.53C413.11 228.53 411.22 228.99 409.64 229.92C408.06 230.84 406.87 231.92 406.07 233.14C405.27 234.36 404.87 235.36 404.87 236.15V264.34H393.13V217.55L393.12 217.53Z" fill="white"/>
<path d="M307.09 6.01999V30.96C307.09 33.29 305.18 35.2 302.85 35.2H250.27C246.44 35.2 242.72 36.5 239.71 38.88C234.23 43.22 225.37 51.1 211.62 65.36C197.02 50.04 187.34 42.11 181.16 38.01C178.38 36.17 175.12 35.2 171.79 35.2H121.11C117.99 35.2 115.44 32.65 115.44 29.53V6.01999C115.44 2.70999 118.15 0 121.47 0H301.06C304.38 0 307.09 2.70999 307.09 6.01999V6.01999Z" fill="white"/>
<path d="M243.15 93.0499V160.56C243.15 163.84 240.47 166.52 237.19 166.52H185.89C182.61 166.52 179.93 163.84 179.93 160.56V93.0499C179.93 92.2899 180.07 91.5599 180.34 90.8899C181.39 88.2099 184.89 87.5399 186.92 89.5699L208.67 111.32C210.25 112.9 212.84 112.9 214.42 111.32L236.18 89.5499C238.11 87.6199 241.47 88.08 242.61 90.56C242.96 91.32 243.16 92.1599 243.16 93.0399L243.15 93.0499Z" fill="white"/>
</svg>
