<svg width="48" height="48" viewBox="0 0 48 48" fill="none" xmlns="http://www.w3.org/2000/svg">
<rect width="48" height="48" rx="24" fill="#393E46"/>
<path d="M34.54 18.42C34.4212 17.9454 34.1792 17.5106 33.8386 17.1594C33.498 16.8082 33.0707 16.5532 32.6 16.42C30.88 16 24 16 24 16C24 16 17.12 16 15.4 16.46C14.9292 16.5932 14.5019 16.8482 14.1613 17.1994C13.8207 17.5506 13.5787 17.9854 13.46 18.46C13.1452 20.2056 12.9912 21.9763 13 23.75C12.9887 25.537 13.1427 27.3213 13.46 29.08C13.5909 29.5398 13.8383 29.9581 14.1781 30.2945C14.5179 30.6308 14.9388 30.8738 15.4 31C17.12 31.46 24 31.46 24 31.46C24 31.46 30.88 31.46 32.6 31C33.0707 30.8668 33.498 30.6118 33.8386 30.2606C34.1792 29.9094 34.4212 29.4746 34.54 29C34.8523 27.2676 35.0063 25.5103 35 23.75C35.0112 21.963 34.8572 20.1787 34.54 18.42V18.42Z" stroke="#EEEEEE" stroke-opacity="0.75" stroke-width="2" stroke-linecap="round" stroke-linejoin="round"/>
<path d="M21.75 27.02L27.5 23.75L21.75 20.48V27.02Z" stroke="#EEEEEE" stroke-opacity="0.75" stroke-width="2" stroke-linecap="round" stroke-linejoin="round"/>
</svg>
